<svg id="visual" viewBox="0 0 1080 1920" width="1080" height="1920" xmlns="http://www.w3.org/2000/svg" xmlns:xlink="http://www.w3.org/1999/xlink" version="1.1"><rect width="1080" height="1920" fill="#0d0c16"></rect><g><g transform="translate(85 715)"><path d="M0 -111.9L96.9 -55.9L96.9 55.9L0 111.9L-96.9 55.9L-96.9 -55.9Z" fill="#796bd3"></path></g><g transform="translate(220 332)"><path d="M0 -76L65.8 -38L65.8 38L0 76L-65.8 38L-65.8 -38Z" fill="#796bd3"></path></g><g transform="translate(807 1467)"><path d="M0 -30L26 -15L26 15L0 30L-26 15L-26 -15Z" fill="#796bd3"></path></g><g transform="translate(64 1347)"><path d="M0 -74L64.1 -37L64.1 37L0 74L-64.1 37L-64.1 -37Z" fill="#796bd3"></path></g><g transform="translate(848 627)"><path d="M0 -41L35.5 -20.5L35.5 20.5L0 41L-35.5 20.5L-35.5 -20.5Z" fill="#796bd3"></path></g><g transform="translate(565 321)"><path d="M0 -81L70.1 -40.5L70.1 40.5L0 81L-70.1 40.5L-70.1 -40.5Z" fill="#796bd3"></path></g><g transform="translate(1038 1245)"><path d="M0 -76L65.8 -38L65.8 38L0 76L-65.8 38L-65.8 -38Z" fill="#796bd3"></path></g><g transform="translate(863 1055)"><path d="M0 -13L11.3 -6.5L11.3 6.5L0 13L-11.3 6.5L-11.3 -6.5Z" fill="#796bd3"></path></g><g transform="translate(421 1839)"><path d="M0 -42L36.4 -21L36.4 21L0 42L-36.4 21L-36.4 -21Z" fill="#796bd3"></path></g><g transform="translate(842 289)"><path d="M0 -38L32.9 -19L32.9 19L0 38L-32.9 19L-32.9 -19Z" fill="#796bd3"></path></g><g transform="translate(1050 1585)"><path d="M0 -62L53.7 -31L53.7 31L0 62L-53.7 31L-53.7 -31Z" fill="#796bd3"></path></g><g transform="translate(343 542)"><path d="M0 -34L29.4 -17L29.4 17L0 34L-29.4 17L-29.4 -17Z" fill="#796bd3"></path></g><g transform="translate(939 1792)"><path d="M0 -20L17.3 -10L17.3 10L0 20L-17.3 10L-17.3 -10Z" fill="#796bd3"></path></g><g transform="translate(350 963)"><path d="M0 -14L12.1 -7L12.1 7L0 14L-12.1 7L-12.1 -7Z" fill="#796bd3"></path></g><g transform="translate(555 1090)"><path d="M0 -109L94.4 -54.5L94.4 54.5L0 109L-94.4 54.5L-94.4 -54.5Z" fill="#796bd3"></path></g><g transform="translate(543 22)"><path d="M0 -46L39.8 -23L39.8 23L0 46L-39.8 23L-39.8 -23Z" fill="#796bd3"></path></g><g transform="translate(497 1438)"><path d="M0 -58L50.2 -29L50.2 29L0 58L-50.2 29L-50.2 -29Z" fill="#796bd3"></path></g><g transform="translate(655 1765)"><path d="M0 -28L24.2 -14L24.2 14L0 28L-24.2 14L-24.2 -14Z" fill="#796bd3"></path></g><g transform="translate(105 949)"><path d="M0 -39L33.8 -19.5L33.8 19.5L0 39L-33.8 19.5L-33.8 -19.5Z" fill="#796bd3"></path></g><g transform="translate(342 1622)"><path d="M0 -92L79.7 -46L79.7 46L0 92L-79.7 46L-79.7 -46Z" fill="#796bd3"></path></g><g transform="translate(29 1835)"><path d="M0 -95L82.3 -47.5L82.3 47.5L0 95L-82.3 47.5L-82.3 -47.5Z" fill="#796bd3"></path></g><g transform="translate(707 862)"><path d="M0 -57L49.4 -28.5L49.4 28.5L0 57L-49.4 28.5L-49.4 -28.5Z" fill="#796bd3"></path></g><g transform="translate(1068 731)"><path d="M0 -19L16.5 -9.5L16.5 9.5L0 19L-16.5 9.5L-16.5 -9.5Z" fill="#796bd3"></path></g><g transform="translate(30 1593)"><path d="M0 -80L69.3 -40L69.3 40L0 80L-69.3 40L-69.3 -40Z" fill="#796bd3"></path></g><g transform="translate(281 1233)"><path d="M0 -20L17.3 -10L17.3 10L0 20L-17.3 10L-17.3 -10Z" fill="#796bd3"></path></g><g transform="translate(924 75)"><path d="M0 -68L58.9 -34L58.9 34L0 68L-58.9 34L-58.9 -34Z" fill="#796bd3"></path></g><g transform="translate(505 713)"><path d="M0 -91L78.8 -45.5L78.8 45.5L0 91L-78.8 45.5L-78.8 -45.5Z" fill="#796bd3"></path></g><g transform="translate(281 19)"><path d="M0 -94L81.4 -47L81.4 47L0 94L-81.4 47L-81.4 -47Z" fill="#796bd3"></path></g><g transform="translate(1071 401)"><path d="M0 -55L47.6 -27.5L47.6 27.5L0 55L-47.6 27.5L-47.6 -27.5Z" fill="#796bd3"></path></g><g transform="translate(29 103)"><path d="M0 -43L37.2 -21.5L37.2 21.5L0 43L-37.2 21.5L-37.2 -21.5Z" fill="#796bd3"></path></g><g transform="translate(20 467)"><path d="M0 -23L19.9 -11.5L19.9 11.5L0 23L-19.9 11.5L-19.9 -11.5Z" fill="#796bd3"></path></g></g></svg>