<svg id="visual" viewBox="0 0 600 900" width="600" height="900" xmlns="http://www.w3.org/2000/svg" xmlns:xlink="http://www.w3.org/1999/xlink" version="1.1"><rect x="0" y="0" width="600" height="900" fill="#001220"></rect><path d="M238 0L246.7 13.7C255.3 27.3 272.7 54.7 273.2 82C273.7 109.3 257.3 136.7 251.7 163.8C246 191 251 218 246 245.2C241 272.3 226 299.7 221.2 327C216.3 354.3 221.7 381.7 234.5 409C247.3 436.3 267.7 463.7 281 491C294.3 518.3 300.7 545.7 291.8 573C283 600.3 259 627.7 245.2 654.8C231.3 682 227.7 709 238 736.2C248.3 763.3 272.7 790.7 288.2 818C303.7 845.3 310.3 872.7 313.7 886.3L317 900L0 900L0 886.3C0 872.7 0 845.3 0 818C0 790.7 0 763.3 0 736.2C0 709 0 682 0 654.8C0 627.7 0 600.3 0 573C0 545.7 0 518.3 0 491C0 463.7 0 436.3 0 409C0 381.7 0 354.3 0 327C0 299.7 0 272.3 0 245.2C0 218 0 191 0 163.8C0 136.7 0 109.3 0 82C0 54.7 0 27.3 0 13.7L0 0Z" fill="#715df2"></path><path d="M281 0L269 13.7C257 27.3 233 54.7 231.3 82C229.7 109.3 250.3 136.7 244.8 163.8C239.3 191 207.7 218 195 245.2C182.3 272.3 188.7 299.7 207.2 327C225.7 354.3 256.3 381.7 271.2 409C286 436.3 285 463.7 281.3 491C277.7 518.3 271.3 545.7 263 573C254.7 600.3 244.3 627.7 228.2 654.8C212 682 190 709 184.3 736.2C178.7 763.3 189.3 790.7 203.8 818C218.3 845.3 236.7 872.7 245.8 886.3L255 900L0 900L0 886.3C0 872.7 0 845.3 0 818C0 790.7 0 763.3 0 736.2C0 709 0 682 0 654.8C0 627.7 0 600.3 0 573C0 545.7 0 518.3 0 491C0 463.7 0 436.3 0 409C0 381.7 0 354.3 0 327C0 299.7 0 272.3 0 245.2C0 218 0 191 0 163.8C0 136.7 0 109.3 0 82C0 54.7 0 27.3 0 13.7L0 0Z" fill="#6c50f6"></path><path d="M190 0L193.5 13.7C197 27.3 204 54.7 196.3 82C188.7 109.3 166.3 136.7 153 163.8C139.7 191 135.3 218 141 245.2C146.7 272.3 162.3 299.7 173.5 327C184.7 354.3 191.3 381.7 191.2 409C191 436.3 184 463.7 174.7 491C165.3 518.3 153.7 545.7 160.7 573C167.7 600.3 193.3 627.7 192 654.8C190.7 682 162.3 709 155.8 736.2C149.3 763.3 164.7 790.7 175.7 818C186.7 845.3 193.3 872.7 196.7 886.3L200 900L0 900L0 886.3C0 872.7 0 845.3 0 818C0 790.7 0 763.3 0 736.2C0 709 0 682 0 654.8C0 627.7 0 600.3 0 573C0 545.7 0 518.3 0 491C0 463.7 0 436.3 0 409C0 381.7 0 354.3 0 327C0 299.7 0 272.3 0 245.2C0 218 0 191 0 163.8C0 136.7 0 109.3 0 82C0 54.7 0 27.3 0 13.7L0 0Z" fill="#6940fa"></path><path d="M145 0L146.3 13.7C147.7 27.3 150.3 54.7 149.5 82C148.7 109.3 144.3 136.7 138.8 163.8C133.3 191 126.7 218 118.2 245.2C109.7 272.3 99.3 299.7 97.7 327C96 354.3 103 381.7 112.2 409C121.3 436.3 132.7 463.7 141.2 491C149.7 518.3 155.3 545.7 151.5 573C147.7 600.3 134.3 627.7 128.2 654.8C122 682 123 709 121.7 736.2C120.3 763.3 116.7 790.7 114.7 818C112.7 845.3 112.3 872.7 112.2 886.3L112 900L0 900L0 886.3C0 872.7 0 845.3 0 818C0 790.7 0 763.3 0 736.2C0 709 0 682 0 654.8C0 627.7 0 600.3 0 573C0 545.7 0 518.3 0 491C0 463.7 0 436.3 0 409C0 381.7 0 354.3 0 327C0 299.7 0 272.3 0 245.2C0 218 0 191 0 163.8C0 136.7 0 109.3 0 82C0 54.7 0 27.3 0 13.7L0 0Z" fill="#672bfd"></path><path d="M103 0L97.2 13.7C91.3 27.3 79.7 54.7 74.2 82C68.7 109.3 69.3 136.7 71.5 163.8C73.7 191 77.3 218 77 245.2C76.7 272.3 72.3 299.7 75.8 327C79.3 354.3 90.7 381.7 86.3 409C82 436.3 62 463.7 51.8 491C41.7 518.3 41.3 545.7 49.7 573C58 600.3 75 627.7 84.7 654.8C94.3 682 96.7 709 87.7 736.2C78.7 763.3 58.3 790.7 53.8 818C49.3 845.3 60.7 872.7 66.3 886.3L72 900L0 900L0 886.3C0 872.7 0 845.3 0 818C0 790.7 0 763.3 0 736.2C0 709 0 682 0 654.8C0 627.7 0 600.3 0 573C0 545.7 0 518.3 0 491C0 463.7 0 436.3 0 409C0 381.7 0 354.3 0 327C0 299.7 0 272.3 0 245.2C0 218 0 191 0 163.8C0 136.7 0 109.3 0 82C0 54.7 0 27.3 0 13.7L0 0Z" fill="#6600ff"></path></svg>